<?xml version="1.0" encoding="UTF-8" standalone="no"?>
<!-- Created with Inkscape (http://www.inkscape.org/) -->

<svg
   xmlns:dc="http://purl.org/dc/elements/1.1/"
   xmlns:cc="http://creativecommons.org/ns#"
   xmlns:rdf="http://www.w3.org/1999/02/22-rdf-syntax-ns#"
   xmlns:svg="http://www.w3.org/2000/svg"
   xmlns="http://www.w3.org/2000/svg"
   xmlns:sodipodi="http://sodipodi.sourceforge.net/DTD/sodipodi-0.dtd"
   xmlns:inkscape="http://www.inkscape.org/namespaces/inkscape"
   id="svg6533"
   sodipodi:docname="cleopatra.svg"
   viewBox="0 0 302.61267 302.85666"
   sodipodi:version="0.32"
   version="1.0"
   inkscape:output_extension="org.inkscape.output.svg.inkscape"
   inkscape:version="0.48.4 r9939"
   width="100%"
   height="100%">
  <defs
     id="defs7" />
  <sodipodi:namedview
     id="base"
     bordercolor="#666666"
     inkscape:pageshadow="2"
     guidetolerance="10.0"
     pagecolor="#ffffff"
     gridtolerance="10.0"
     inkscape:window-maximized="0"
     inkscape:zoom="0.70710678"
     objecttolerance="10.0"
     borderopacity="1.0"
     inkscape:current-layer="layer1"
     inkscape:cx="258.8372"
     inkscape:cy="24.381343"
     inkscape:window-y="319"
     inkscape:window-x="583"
     inkscape:window-height="757"
     showgrid="false"
     inkscape:pageopacity="0.0"
     inkscape:window-width="1308"
     fit-margin-top="0"
     fit-margin-left="0"
     fit-margin-right="0"
     fit-margin-bottom="0" />
  <g
     id="layer1"
     transform="translate(-331.44608,-417.00928)">
    <path
       sodipodi:type="arc"
       style="fill:#00a1f4;fill-opacity:1;stroke:none"
       id="path5318"
       sodipodi:cx="510.22083"
       sodipodi:cy="213.46526"
       sodipodi:rx="181.923"
       sodipodi:ry="181.923"
       d="m 692.14383,213.46526 c 0,100.4733 -81.4497,181.923 -181.923,181.923 -100.47331,0 -181.92301,-81.4497 -181.92301,-181.923 0,-100.47331 81.4497,-181.923008 181.92301,-181.923008 100.4733,0 181.923,81.449698 181.923,181.923008 z"
       transform="matrix(0.82452461,0,0,0.82452461,62.040349,392.39662)" />
    <path
       style="fill:#006498;fill-opacity:1;stroke:none"
       d="m 464.28973,475.70018 c -2.57191,0.0303 -5.4947,0.66637 -14.3378,2.75286 -3.3646,0.79386 -7.11972,1.58671 -8.35416,1.77789 -1.65379,0.25614 -2.58719,0.88091 -3.51753,2.33228 -0.69452,1.0834 -2.22768,3.20784 -3.40284,4.72191 -1.17517,1.51408 -2.13298,3.33115 -2.14112,4.05282 -0.01,0.87866 -0.32225,1.23256 -1.5676,1.4529 -0.013,0.002 -0.025,-0.002 -0.0383,0 -18.45919,0.1403 -29.87797,13.41754 -29.42117,35.23275 1.4e-4,0.006 -1.3e-4,0.0127 0,0.0191 7.08318,58.3392 16.78863,81.77463 28.41388,106.20653 18.06929,20.55505 37.05401,21.76552 51.66751,24.4395 6.30639,1.38852 8.54775,3.17668 10.05558,0.76468 0.57846,-0.92526 1.70701,-2.25306 2.52345,-2.94402 1.22478,-1.03661 1.42194,-1.59247 1.07055,-3.19255 -0.35591,-1.62027 -1.04889,-2.24578 -4.20575,-3.78518 -2.07786,-1.01336 -5.71218,-2.2513 -8.0674,-2.75286 -2.35522,-0.50157 -5.10808,-1.17555 -6.11746,-1.49113 l -1.83524,-0.57352 2.21758,-0.0573 c 1.21939,-0.0289 3.41853,-0.46114 4.87485,-0.97497 1.99637,-0.70434 3.09535,-0.77961 4.45428,-0.30587 2.50656,0.87376 3.8176,0.77049 4.9322,-0.34411 1.35563,-1.35557 2.04562,-0.64389 2.52345,2.54257 0.41868,2.7917 1.55378,4.54986 2.94403,4.54986 0.41476,0 2.05235,-0.83326 3.63225,-1.83524 1.78917,-1.13463 2.86755,-1.51924 2.86755,-1.03232 0,0.42994 -0.27473,1.05853 -0.61174,1.39555 -1.03771,1.0374 -1.35156,5.33929 -0.47793,6.48068 1.12561,1.4704 7.41497,2.67833 12.00552,2.31317 3.33457,-0.26526 4.10372,-0.56189 5.42924,-2.10288 1.54693,-1.79853 1.65673,-3.74554 0.45881,-7.99093 -0.33248,-1.1782 -0.13229,-1.23626 4.41604,-1.03232 3.8581,0.173 4.94242,0.44562 5.62042,1.39554 1.0809,1.51426 3.51541,1.49817 6.90126,-0.0382 1.46673,-0.66554 3.8109,-1.2161 5.21896,-1.2235 1.40806,-0.007 3.26624,-0.28361 4.12929,-0.61174 1.39906,-0.53192 1.5676,-0.92977 1.5676,-3.6896 0,-1.81921 -0.3943,-3.72103 -0.97497,-4.60721 -0.85767,-1.30901 -1.44461,-1.51025 -4.45428,-1.51025 -1.90675,0 -4.98506,0.43287 -6.82479,0.95585 -6.70669,1.90653 -6.3439,1.92942 -5.25719,-0.17205 1.25958,-2.43554 1.93844,-2.648 10.07469,-3.05873 l 6.9395,-0.34411 1.2426,-2.5808 c 0.92386,-1.90149 1.14807,-3.16221 0.84115,-4.79838 -0.64355,-3.42756 -2.54165,-4.11053 -10.99231,-3.919 -3.84757,0.0872 -7.20123,-0.0365 -7.45565,-0.28676 -0.25437,-0.25026 -0.004,-0.96934 0.55439,-1.58671 0.55871,-0.61732 1.0132,-1.44116 1.0132,-1.83524 0,-0.39405 0.0688,-0.73089 0.15294,-0.74557 3.81607,-0.66538 13.58122,-0.96224 15.54217,-0.47793 3.61512,0.89285 5.17336,-0.0485 5.04691,-3.03961 -0.0526,-1.24613 0.14597,-3.51372 0.45881,-5.02779 0.75648,-3.66117 0.55871,-4.31816 -1.87347,-5.98364 -1.83494,-1.25652 -2.72056,-1.42044 -7.79976,-1.31907 l -5.716,0.1147 0.21028,-1.75877 c 0.40559,-3.58783 1.40396,-3.96851 8.94678,-3.51755 5.85038,0.3498 6.89335,0.26921 7.6086,-0.59262 0.11397,-0.13735 0.22494,-0.2616 0.34411,-0.38234 0.01,-0.0102 0.0284,-0.009 0.0383,-0.0191 1.07441,-1.88203 3.25914,-5.45271 4.39693,-7.24537 0.2505,-1.71388 -0.0287,-2.11323 -1.72054,-3.53665 -2.03161,-1.70921 -2.07,-1.7173 -8.92767,-1.41467 l -6.90126,0.30588 0,-1.68231 c 0,-0.92379 0.34386,-1.96391 0.76468,-2.31316 0.42089,-0.34922 4.43721,-0.72863 8.92767,-0.84115 l 8.16299,-0.19117 1.47201,-1.83524 c 1.79218,-2.24211 1.83842,-4.3965 0.15294,-6.42333 -1.22105,-1.46802 -1.60064,-1.54164 -9.90264,-1.83524 l -8.66003,-0.30588 -0.19117,-1.64406 c -0.13355,-1.15473 0.13391,-1.71719 0.91762,-1.93083 3.18046,-0.86704 5.20443,-1.11623 10.13204,-1.31907 7.10439,-0.29248 9.25474,-1.43479 9.5203,-5.04691 0.14352,-1.95177 -0.12174,-2.83636 -1.14702,-3.86164 -1.20349,-1.20353 -1.75847,-1.3131 -5.69689,-0.97498 -9.05739,2.39622 -7.68085,2.03795 -10.68644,1.20438 -1.32981,-0.34779 -1.91379,-1.76581 -1.83524,-3.09696 0.93602,-1.3257 4.73643,-1.09002 8.92767,-3.0205 6.47613,-2.99633 7.49389,-4.0304 7.49389,-7.58947 0,-1.00406 -0.3441,-1.90064 -0.76468,-2.0073 -0.42058,-0.10663 -1.68148,-0.50785 -2.81021,-0.87938 -2.34054,-0.77049 -5.05608,-0.0528 -11.54671,3.05873 -3.46004,1.65872 -4.3568,1.83411 -9.71147,1.77788 -7.8539,-0.0824 -10.32985,0.64243 -13.55399,3.99547 -2.19789,2.28567 -2.51089,2.90668 -1.96906,3.919 1.00485,1.87766 3.90961,1.57974 5.42924,-0.5544 1.66297,-2.33558 4.34245,-3.36548 7.74242,-2.98226 3.17143,0.35744 5.30867,1.95557 5.0469,3.78518 -0.15453,1.08022 -0.64286,1.2557 -3.38372,1.28084 -3.55217,0.0326 -4.04337,0.28132 -3.49842,1.70143 0.89804,2.34049 8.27423,4.40044 9.90264,2.77197 0.38111,-0.38114 1.14745,-0.50668 1.72053,-0.28676 0.96595,0.37066 0.96879,0.48705 -0.0956,1.66319 -1.02847,1.13643 -1.60801,1.2461 -5.44837,0.8985 -2.35818,-0.21345 -5.55835,-0.14854 -7.13066,0.15293 -3.29444,0.6317 -3.98528,0.36616 -4.28222,-1.66318 -0.28893,-1.97489 -2.00271,-3.04261 -3.42196,-2.12199 -1.56087,1.01243 -1.11295,3.89697 1.29996,8.35415 1.12898,2.08532 2.54636,5.13635 3.15432,6.76745 1.20985,3.24603 2.23923,4.01066 3.7087,2.79108 0.69587,-0.57754 0.91059,-1.63008 0.76469,-3.88076 l -0.21029,-3.09696 2.31317,-0.57351 c 1.49033,-0.36814 2.5111,-0.35648 2.90579,0.0382 0.33585,0.33585 0.79038,2.79843 0.99409,5.46748 0.32055,4.20147 0.11298,5.75898 -1.47202,11.58494 -2.69774,9.9158 -3.81344,14.70188 -3.82341,16.30686 -0.005,0.78591 -0.43088,2.61965 -0.93674,4.07193 -0.50585,1.45229 -0.7674,2.87151 -0.59262,3.15432 0.63841,1.03263 -3.29906,8.11539 -5.6013,10.07469 -4.50368,3.83302 -7.79273,5.08054 -14.72015,5.58219 -4.5096,0.32655 -5.45753,0.18774 -9.0806,-1.26173 -4.09442,-1.63806 -5.77335,-1.66435 -5.77335,-0.0956 0,0.47411 -0.39033,1.17758 -0.86027,1.5676 -1.46459,1.21542 -0.36377,3.05782 2.61903,4.39693 l 2.82933,1.26172 -3.49842,1.62496 c -1.92474,0.88923 -3.57431,2.02432 -3.67048,2.52345 -0.14253,0.74248 -1.62128,0.92052 -8.12475,0.97497 -4.37203,0.0366 -8.98502,0.28158 -10.24675,0.55439 -2.06129,0.44572 -2.29404,0.37191 -2.29404,-0.74556 0,-0.7801 0.62704,-1.49405 1.6823,-1.93082 0.92526,-0.38302 2.92108,-1.37166 4.43515,-2.17935 1.81359,-0.96743 3.811,-1.46734 5.84983,-1.49113 4.20018,-0.049 5.18489,-0.90961 5.25719,-4.51163 0.0613,-3.05084 -1.22404,-5.31455 -3.0205,-5.31455 -0.49961,0 -1.25926,-0.4729 -1.6823,-1.05143 -0.72694,-0.99422 -1.0248,-0.99587 -5.27631,0.0191 -2.47402,0.59071 -5.88928,1.51439 -7.60859,2.04553 -2.90206,0.89652 -3.2417,0.88682 -4.74103,-0.0956 -2.42019,-1.58583 -2.12499,-3.17914 0.66909,-3.53666 5.4213,-0.69372 12.09273,-2.38453 13.13343,-3.32637 1.83762,-1.66334 0.93643,-6.07051 -1.77789,-8.66003 -2.05002,-1.95576 -2.31953,-2.03694 -5.6013,-1.72054 -5.40355,0.52097 -12.54878,2.02482 -14.54809,3.05874 -1.00644,0.52047 -2.17287,0.72273 -2.59992,0.4588 -0.84971,-0.52512 -2.02379,-4.87778 -1.52936,-5.67776 0.57504,-0.93126 4.56448,-2.28866 7.76153,-2.63816 1.7469,-0.19099 4.7239,-0.63474 6.6145,-0.99409 2.90494,-0.55216 3.68008,-0.50138 4.97044,0.34411 1.13528,0.74386 1.91216,0.84924 3.03961,0.42058 1.7291,-0.65702 2.24119,-1.78171 4.51163,-9.82618 1.75516,-6.219 2.03078,-10.95679 0.82204,-14.29956 -0.41651,-1.1518 -0.56987,-2.56601 -0.34411,-3.15432 0.43067,-1.12249 0.6717,-1.11845 10.01734,0.0574 3.67237,0.46211 6.34035,-0.39036 8.04828,-2.56169 0.63408,-0.8061 2.34675,-1.72597 3.99547,-2.14111 3.3624,-0.84666 4.07851,-2.00072 2.33228,-3.74695 -2.71493,-2.71487 -9.68073,-2.29655 -17.49211,1.03232 -1.29611,0.55241 -2.94783,0.91555 -3.67048,0.80292 -1.0834,-0.16884 -0.72887,-0.58816 2.04552,-2.38963 1.85054,-1.20159 4.17627,-2.44909 5.16162,-2.77198 2.25538,-0.73905 3.35573,-2.34115 2.33228,-3.3646 -1.04609,-1.04639 -4.76618,0.18306 -8.64092,2.84844 -1.70628,1.1737 -3.34798,2.14111 -3.65136,2.14111 -0.30342,0 -0.90022,0.41293 -1.31907,0.91762 -0.41881,0.50469 -1.5153,0.91762 -2.44699,0.91762 -1.30498,0 -1.78264,-0.36784 -2.08376,-1.5676 -0.50897,-2.02788 -0.27862,-2.33671 2.92491,-3.84253 6.22207,-2.92487 18.20859,-4.30479 22.61549,-2.59992 1.31305,0.50797 2.13683,0.49288 3.3646,-0.0956 2.3203,-1.11204 2.0979,-2.96658 -0.51616,-4.30134 -1.81566,-0.92721 -3.16315,-1.03503 -8.87032,-0.74557 -8.40845,0.42651 -12.97085,1.38524 -18.04651,3.82341 -2.29998,1.10485 -4.1978,1.68873 -4.51162,1.37643 -0.31493,-0.31339 0.0699,-1.76954 0.91762,-3.47931 1.12738,-2.27379 2.12324,-3.27935 4.35869,-4.41604 1.59219,-0.80964 3.06953,-2.04497 3.28813,-2.73374 0.21864,-0.68876 0.76319,-1.62346 1.2235,-2.08375 1.13827,-1.13785 1.05911,-2.16678 -0.64998,-7.32184 -1.55653,-4.69515 -2.77638,-6.72487 -6.63363,-11.16437 -1.3155,-1.51407 -3.39549,-3.97209 -4.62633,-5.44836 -2.7969,-3.35482 -6.64444,-7.13639 -9.69235,-9.55854 -3.23185,-2.56798 -11.33981,-7.52407 -13.61135,-8.31592 -2.39468,-0.83479 -2.3721,-1.55435 0.0383,-2.08376 1.04584,-0.22971 3.68531,-1.25307 5.86894,-2.27493 l 3.95723,-1.85435 2.16023,1.22349 c 2.53875,1.45106 9.95999,8.6313 9.95999,9.635 0,0.38197 1.51407,2.12677 3.3646,3.88076 1.85054,1.754 3.36461,3.72826 3.36461,4.37781 0,0.64955 0.71892,1.9441 1.60583,2.88668 0.88691,0.94257 2.2115,2.95932 2.92491,4.47339 0.71342,1.51407 1.76473,3.4312 2.3514,4.26311 0.58664,0.83191 1.07056,2.04289 1.07056,2.69551 0,0.6526 0.66622,2.3142 1.47201,3.68959 0.80579,1.37545 1.78324,3.74312 2.17934,5.25719 0.93598,3.57712 1.96068,4.28222 6.21305,4.28222 4.55715,0 5.42925,-0.8607 5.42925,-5.29543 0,-4.4113 -1.8443,-13.70684 -2.79109,-14.07015 -0.40834,-0.15674 -0.61414,-0.78248 -0.45881,-1.37643 0.48817,-1.86705 -4.25956,-12.24297 -7.43654,-16.26863 -1.06212,-1.34584 -2.37727,-3.41048 -2.92491,-4.58809 -1.125,-2.42001 -7.39087,-9.25642 -9.48206,-10.34234 -0.96342,-0.50028 -1.37643,-1.27512 -1.37643,-2.56168 0,-2.62238 -2.06798,-6.31148 -4.0337,-7.20713 -0.923,-0.42058 -3.43477,-0.92739 -5.58219,-1.12791 -0.9843,-0.0919 -1.79996,-0.14391 -2.65727,-0.13382 z m 29.91821,4.77927 c -1.3303,0.0243 -2.67908,0.39302 -3.82342,0.95586 -3.2265,0.73946 -5.7737,3.55292 -6.36598,6.78655 1.05855,2.54317 5.11324,1.88526 5.52483,4.87485 2.67784,2.87256 4.43341,6.43309 6.80568,9.53942 1.7745,3.10502 3.2574,6.37532 5.06602,9.46295 3.26907,5.96158 3.67892,12.85618 4.64545,19.44205 0.14681,2.25362 0.99004,4.77317 3.53666,5.18073 2.8648,0.80515 5.99619,-0.73627 7.2836,-3.38372 2.94803,-5.21671 1.83513,-11.4805 0.47793,-16.99508 -0.53312,-2.22706 -0.99447,-4.50363 -0.93674,-6.80567 -1.58616,-4.8095 -5.15378,-8.61171 -7.18802,-13.20989 -2.24008,-4.13388 -5.04949,-7.96128 -8.44974,-11.2026 -0.65907,-0.92196 -1.21777,-1.94269 -2.12199,-2.65727 -1.08151,-1.47537 -2.7439,-2.01941 -4.45428,-1.98818 z m 19.74792,11.3173 c 0.29155,3.56025 0.72605,7.24228 2.61904,10.36145 1.24476,2.40819 2.93346,4.55471 4.49252,6.74832 2.88688,5.98753 2.26385,12.78696 2.27493,19.23177 0.32753,2.40034 -0.70664,5.21098 0.93673,7.2836 1.53956,1.24124 3.68286,1.36652 5.54395,1.87348 1.90391,0.47543 4.28974,-0.27322 4.76015,-2.38963 1.38235,-4.75455 0.65443,-9.73891 0.6691,-14.60544 -0.29797,-4.06031 -2.29418,-7.73209 -4.39693,-11.12614 -2.48631,-2.18166 -2.82489,-5.82379 -5.12337,-8.16298 -1.90233,-2.51917 -4.12254,-4.80244 -6.67186,-6.67186 -1.78551,-0.68092 -3.1268,-2.32368 -5.10426,-2.54257 z m -79.22111,19.1553 2.50434,0.11471 c 2.79568,0.12289 4.81917,1.08848 12.2158,5.81158 1.40793,0.89909 3.59551,2.12665 4.87485,2.73374 2.40477,1.14091 13.65705,11.60587 13.68782,12.73197 0.01,0.34961 1.13708,1.86965 2.50434,3.38372 3.34792,3.7073 4.39041,5.33556 3.91899,6.09834 -0.77459,1.25335 -2.51189,0.49787 -5.27631,-2.31316 -5.50999,-5.60237 -14.44776,-11.81548 -18.02739,-12.52168 -0.98675,-0.19466 -4.27457,-1.21967 -7.30272,-2.27493 -4.2646,-1.48617 -6.57443,-1.92296 -10.24674,-1.94994 -3.48201,-0.0256 -4.74104,-0.25285 -4.74104,-0.84115 0,-0.44058 0.28926,-0.98144 0.64998,-1.20438 0.36069,-0.22292 1.68383,-2.51244 2.94403,-5.08514 z m 109.78931,3.00138 c -0.15717,0.0108 -0.30479,0.0239 -0.45881,0.0574 -1.70326,0.40464 -2.7444,2.05525 -2.96315,3.70871 -0.25561,1.2891 -0.14578,2.62697 -0.30587,3.919 -1.06445,3.99215 -1.78352,8.12813 -3.65136,11.85258 -0.009,1.61439 -1.82313,2.47825 -1.94994,4.0337 0.25531,1.20187 1.74608,1.45313 2.17934,2.59993 0.59099,0.84064 1.47737,1.98887 2.65728,1.56759 1.35887,-0.62068 2.38454,-1.80383 3.46019,-2.81021 3.01274,-3.12314 5.3498,-6.79761 7.70417,-10.41879 1.75671,-3.31069 0.82045,-7.36958 -1.05144,-10.41881 -1.13517,-1.88826 -2.80928,-3.84258 -5.14249,-4.09105 -0.15714,-0.0112 -0.32076,-0.0108 -0.47792,0 z m -107.6482,26.28597 c 1.26104,-0.0179 3.06806,0.22723 6.51892,0.72644 7.6779,1.11069 10.87685,2.02473 13.45842,3.84254 0.90299,0.63584 2.26346,1.35167 3.02049,1.58671 1.44687,0.44921 1.6211,0.86287 1.01321,2.44699 -0.35886,0.93525 -2.12839,1.31268 -2.82933,0.61174 -1.46024,-1.46046 -18.62565,-2.10554 -23.8581,-0.8985 -3.78983,0.87425 -3.96399,0.81937 -4.7028,-1.29996 -0.95673,-2.74447 -0.83054,-4.17357 0.40146,-4.60722 0.5888,-0.20725 2.27199,-0.8858 3.72783,-1.52936 1.2813,-0.56639 1.98886,-0.86149 3.2499,-0.87938 z m 18.29503,21.2964 c 5.28915,0.0826 7.64502,0.90196 8.87032,2.77198 0.54388,0.83008 0.79682,1.68855 0.57351,1.91171 -0.22328,0.22315 -3.74456,0.32954 -7.83799,0.2294 -4.69699,-0.11488 -9.24205,0.14009 -12.33051,0.70734 -2.69168,0.49434 -5.35273,1.08256 -5.90718,1.29996 -1.42634,0.55925 -3.68697,-2.02473 -3.46019,-3.95724 0.22329,-1.90632 1.69255,-2.20079 13.74518,-2.81021 2.47964,-0.12538 4.58381,-0.18046 6.34686,-0.15294 z m 68.6685,17.68329 c -0.48736,-0.005 -1.03701,0.0213 -1.70142,0.0765 -4.23255,0.35096 -6.44245,1.75828 -6.44245,4.12929 0,1.06009 0.43685,2.05873 1.07056,2.42786 1.42139,0.82788 1.66379,0.80243 4.22487,-0.26763 1.20789,-0.50469 3.11241,-0.91762 4.22487,-0.91762 1.89941,0 3.93811,-1.26797 3.93811,-2.44699 0,-0.28954 -0.84047,-1.11879 -1.87347,-1.85435 -1.14638,-0.81637 -1.97898,-1.13316 -3.44107,-1.14703 z m -63.87011,0.49705 c 6.42082,-0.008 8.15209,0.46951 9.27177,2.56169 1.14421,2.13792 0.29379,3.00137 -2.96315,3.00137 -1.63158,0 -4.40925,0.43154 -6.17481,0.95586 -1.76611,0.52426 -5.46674,1.35063 -8.22034,1.83524 -2.75365,0.48462 -5.00499,0.87892 -5.00866,0.87938 -0.27468,0.0368 -3.6647,-3.57621 -4.37781,-4.66457 -0.84606,-1.29127 -0.8893,-1.63317 -0.19117,-2.06464 1.73369,-1.07147 11.74357,-2.4973 17.66417,-2.50433 z m 59.16731,12.34962 c -1.25619,0.0488 -2.68066,0.52552 -4.26311,1.4529 -1.4417,0.84488 -4.10239,1.68162 -6.06011,1.9117 -1.92204,0.22586 -3.80022,0.78093 -4.16751,1.22349 -1.45706,1.75608 -0.2822,2.9337 5.23807,5.19985 3.02723,1.2427 5.59063,2.29398 5.69689,2.33228 0.1062,0.0383 0.72559,-0.22521 1.37643,-0.57351 1.62688,-0.8707 1.48434,-2.09184 -0.34411,-2.92492 -0.84115,-0.38325 -1.52936,-1.07582 -1.52936,-1.54848 0,-1.74549 6.65031,-2.26924 8.01004,-0.63086 0.62215,0.74964 1.58709,0.9134 4.07194,0.70733 4.03294,-0.33444 4.72369,-0.96062 4.18664,-3.82341 -0.56116,-2.99108 -2.47907,-3.88422 -5.90718,-2.75286 -1.9511,0.64392 -2.76197,0.66296 -3.67047,0.0956 -0.78884,-0.49259 -1.66112,-0.70701 -2.63816,-0.66911 z"
       id="path5306"
       inkscape:connector-curvature="0"
       sodipodi:nodetypes="csscscccccccccccscccccccscsccsccscscsscsscccccsccscscsscccscccccccscccccccccsccccccsccsscccscscccsssccccscccscscsccssscccccscsccscsccssscssscccsscscccsssccsscsscsscsccsscsccccsccsscccssssscsccssccscssccccscccccccccccccsccccccccccccccccccscsssssccccccccccccccccssssccssssssccscccssccscssscccccscscssccsccsccsssscscc" />
    <path
       style="fill:none;stroke:#006699;stroke-width:10;stroke-miterlimit:4;stroke-opacity:1;stroke-dasharray:none"
       d="m 478.5625,422.09375 c -53.73615,0.86091 -105.21758,34.6104 -127.94185,83.11584 -23.62604,48.72181 -17.45181,110.51226 16.5356,153.00916 30.11593,39.16486 80.615,61.23302 129.96875,55.84375 50.4906,-4.5791 97.38335,-37.5453 118.33068,-83.93671 21.87049,-46.2493 17.20216,-103.91288 -12.79943,-145.56329 -27.68322,-40.07666 -75.3186,-64.16964 -124.09375,-62.46875 z"
       id="path5322"
       inkscape:connector-curvature="0" />
  </g>
  <metadata
     id="metadata8">
    <rdf:RDF>
      <cc:Work>
        <dc:format>image/svg+xml</dc:format>
        <dc:type
           rdf:resource="http://purl.org/dc/dcmitype/StillImage" />
        <cc:license
           rdf:resource="http://creativecommons.org/licenses/publicdomain/" />
        <dc:publisher>
          <cc:Agent
             rdf:about="http://openclipart.org/">
            <dc:title>Openclipart</dc:title>
          </cc:Agent>
        </dc:publisher>
        <dc:title></dc:title>
      </cc:Work>
      <cc:License
         rdf:about="http://creativecommons.org/licenses/publicdomain/">
        <cc:permits
           rdf:resource="http://creativecommons.org/ns#Reproduction" />
        <cc:permits
           rdf:resource="http://creativecommons.org/ns#Distribution" />
        <cc:permits
           rdf:resource="http://creativecommons.org/ns#DerivativeWorks" />
      </cc:License>
    </rdf:RDF>
  </metadata>
</svg>
